# xmcd
#
# Track frame offsets: 
#        150
#        27825
#        55200
#        77025
#        97500
#        113025
#        134850
#        159675
#        179925
#        199575
#
# Disc length: 2977 seconds
#
# Revision: 2
# Processed by: cddbd v1.5.2PL0 Copyright (c) Steve Scherf et al.
# Submitted via: ExactAudioCopy v1.0b3
#
DISCID=850b9f0a
DTITLE=Lam Thuy Van - Dong Song Ky Niem
DYEAR=1994
DGENRE=
TTITLE0=Voi manh tinh con lai
TTITLE1=Neu mot ngay
TTITLE2=Tinh da bay xa
TTITLE3=Ngay vui nam ay
TTITLE4=Chut lang man
TTITLE5=Nguoi tinh
TTITLE6=Pho huyen chieu em nho
TTITLE7=Em ve nao co hay
TTITLE8=Khi co chang
TTITLE9=Dong song ky niem
EXTD=YEAR: 1994
EXTT0=
EXTT1=
EXTT2=
EXTT3=
EXTT4=
EXTT5=
EXTT6=
EXTT7=
EXTT8=
EXTT9=
PLAYORDER=
